# xmcd
#
# Track frame offsets:
#	180
#	25898
#	49745
#	73901
#	99922
#	123994
#	150174
#	176115
#
# Disc length: 2654 seconds
#
# Revision: 0
# Processed by: cddbd v1.5.1PL0 Copyright (c) Steve Scherf et al.
# Submitted via: dBpowerAMP V4.0
#
DISCID=600a5c08
DTITLE=waris d - buhj
DYEAR=2004
DGENRE=Bass
TTITLE0=hj
TTITLE1=hjuy
TTITLE2=yu
TTITLE3=ju
TTITLE4=juj
TTITLE5=juj8
TTITLE6=isqdei choor
TTITLE7=tio
EXTD=
EXTT0=
EXTT1=
EXTT2=
EXTT3=
EXTT4=
EXTT5=
EXTT6=
EXTT7=
PLAYORDER=
